<?xml version="1.0"?>
<svg xmlns="http://www.w3.org/2000/svg" viewBox="0 0 64 64" width="512" height="512"><g id="Book"><path d="M35,39H29a1,1,0,0,1-1-1V34.247c-.144-.057-.283-.115-.419-.174l-2.654,2.654a1,1,0,0,1-.707.293h0a1,1,0,0,1-.707-.293l-4.24-4.24a1,1,0,0,1,0-1.414l2.654-2.655c-.06-.135-.117-.274-.174-.418H18a1,1,0,0,1-1-1V21a1,1,0,0,1,1-1h3.753c.057-.144.114-.283.174-.419l-2.654-2.654a1,1,0,0,1,0-1.414l4.24-4.24a1.029,1.029,0,0,1,1.414,0l2.654,2.654c.136-.059.275-.117.419-.174V10a1,1,0,0,1,1-1h6a1,1,0,0,1,1,1v3.753c.144.057.283.115.419.174l2.654-2.654a1,1,0,0,1,.707-.293h0a1,1,0,0,1,.707.293l4.24,4.24a1,1,0,0,1,0,1.414l-2.654,2.654c.06.136.117.275.174.419H46a1,1,0,0,1,1,1v6a1,1,0,0,1-1,1H42.247c-.057.144-.114.283-.174.418l2.654,2.655a1,1,0,0,1,0,1.414l-4.24,4.24a1.029,1.029,0,0,1-1.414,0l-2.654-2.654c-.136.059-.275.117-.419.174V38A1,1,0,0,1,35,39Zm-5-2h4V33.54a1,1,0,0,1,.693-.952,8.112,8.112,0,0,0,1.446-.605,1,1,0,0,1,1.188.17l2.453,2.453,2.825-2.826-2.452-2.453a1,1,0,0,1-.17-1.187,8.225,8.225,0,0,0,.605-1.446A1,1,0,0,1,41.54,26H45V22H41.54a1,1,0,0,1-.952-.694,8.225,8.225,0,0,0-.605-1.446,1,1,0,0,1,.17-1.187l2.452-2.453L39.78,13.394l-2.453,2.453a1,1,0,0,1-1.188.17,8.112,8.112,0,0,0-1.446-.6A1,1,0,0,1,34,14.46V11H30v3.46a1,1,0,0,1-.693.952,8.112,8.112,0,0,0-1.446.6,1,1,0,0,1-1.188-.17L24.22,13.394,21.4,16.22l2.452,2.453a1,1,0,0,1,.17,1.187,8.225,8.225,0,0,0-.605,1.446A1,1,0,0,1,22.46,22H19v4h3.46a1,1,0,0,1,.952.694,8.225,8.225,0,0,0,.605,1.446,1,1,0,0,1-.17,1.187L21.4,31.78l2.825,2.826,2.453-2.453a1,1,0,0,1,1.188-.17,8.112,8.112,0,0,0,1.446.605A1,1,0,0,1,30,33.54Z"/><path d="M32,30a6,6,0,1,1,6-6A6.006,6.006,0,0,1,32,30Zm0-10a4,4,0,1,0,4,4A4,4,0,0,0,32,20Z"/><path d="M56,46a1,1,0,0,0,1-1V3a1,1,0,0,0-1-1H13A6.006,6.006,0,0,0,7,8V50a6.006,6.006,0,0,0,6,6h3v5a1,1,0,0,0,1.707.707L21,58.414l3.293,3.293A1,1,0,0,0,26,61V56H56a1,1,0,0,0,0-2,4,4,0,0,1,0-8ZM24,58.586l-2.293-2.293a1,1,0,0,0-1.414,0L18,58.586V51h6ZM51.54,54H26V51H47a1,1,0,0,0,0-2H12a1,1,0,0,0,0,2h4v3H13a4,4,0,1,1,0-8H51.54a5.965,5.965,0,0,0,0,8ZM13,44a5.992,5.992,0,0,0-4,1.531V8a4,4,0,0,1,4-4H55V44Z"/></g></svg>
