<?xml version="1.0"?>
<svg xmlns="http://www.w3.org/2000/svg" id="Layer_1" data-name="Layer 1" viewBox="0 0 512 512" width="512" height="512"><path d="M256,5A251,251,0,0,0,78.516,433.484,251,251,0,0,0,433.484,78.516,249.357,249.357,0,0,0,256,5ZM87,87A239.961,239.961,0,0,1,141.728,45.98l28.741,21.613a83.25,83.25,0,0,0,7.908,5.258,71.343,71.343,0,0,1,22.447,20.785l16.622,23.97a20.061,20.061,0,0,1-.6,23.762l-7.709,10a11.786,11.786,0,0,1-10.781,4.478l-8.748-1.119a37.565,37.565,0,0,0-37.287,18.408,11.932,11.932,0,0,1-11.932,5.631l-20.008-2.541a38.619,38.619,0,0,0-37.036,16.74,35,35,0,0,0-.591,38.363l13.34,21.064a33.113,33.113,0,0,0,43.445,11.427l13.733-7.358a19.342,19.342,0,0,1,18.989.461l26.065,15.64a12.367,12.367,0,0,0,6.7,1.763c9.655-.269,19.149,4.808,25.412,13.539l12.751,17.775c.991,1.38,2.05,2.734,3.147,4.026l16.683,19.626a2.522,2.522,0,0,1,.576,2.089,2.972,2.972,0,0,1-1.195,1.782l-25.058,19.242a46.483,46.483,0,0,0-16.2,23.3l-8.422,27.326a11.12,11.12,0,0,1-2.088,3.856l-8.2,9.859a52.6,52.6,0,0,0-12.186,28.887,7.01,7.01,0,0,1-4.28,5.842.538.538,0,0,1-.585-.1,1.077,1.077,0,0,1-.2-.513L177.5,404.726a41.9,41.9,0,0,0-7.984-18.452l-28.293-37.1a26.791,26.791,0,0,1-4.542-9.144l-9.338-33.69a41.471,41.471,0,0,0-28.924-28.8l-2.034-.556a20.172,20.172,0,0,1-8.49-4.754L70.474,255.835a33.457,33.457,0,0,1-5.968-7.5,44.844,44.844,0,0,0-45.724-21.747A237.2,237.2,0,0,1,87,87ZM425,425A239,239,0,0,1,17,256q0-8.541.6-16.98l1.908-.377a32.822,32.822,0,0,1,34.636,15.741,45.462,45.462,0,0,0,8.106,10.19l17.418,16.393a32.223,32.223,0,0,0,13.555,7.594l2.034.555a29.417,29.417,0,0,1,20.519,20.432l9.338,33.69a38.755,38.755,0,0,0,6.564,13.217l28.294,37.1A29.855,29.855,0,0,1,165.66,406.7l7.69,46.139a12.534,12.534,0,0,0,12.424,10.679,12.5,12.5,0,0,0,4.839-.974A18.984,18.984,0,0,0,202.2,446.725a40.655,40.655,0,0,1,9.462-22.3l8.2-9.859a23.087,23.087,0,0,0,4.327-7.993l8.423-27.326a34.55,34.55,0,0,1,12.04-17.32l25.058-19.241a14.847,14.847,0,0,0,5.737-9.406,14.572,14.572,0,0,0-3.282-11.754L255.48,301.9c-.886-1.042-1.74-2.135-2.539-3.249l-12.752-17.775c-8.584-11.966-21.846-18.9-35.475-18.54a.405.405,0,0,1-.214-.057l-26.066-15.64a31.4,31.4,0,0,0-30.83-.748l-13.732,7.357a21.068,21.068,0,0,1-27.641-7.27l-13.34-21.064a23,23,0,0,1,.39-25.212,26.675,26.675,0,0,1,25.585-11.566l20.011,2.541a23.915,23.915,0,0,0,23.817-11.5,25.589,25.589,0,0,1,25.4-12.538l8.748,1.119a23.841,23.841,0,0,0,21.8-9.056l7.709-10a32.018,32.018,0,0,0,.957-37.925L210.685,86.8a83.437,83.437,0,0,0-26.247-24.3,71.148,71.148,0,0,1-6.763-4.5L153.616,39.905A239.578,239.578,0,0,1,403.432,67.858l-6.244,8.712a316.469,316.469,0,0,0-39.813,53.964l-9.072,15.51a17.989,17.989,0,0,0,2.157,20.742,27.282,27.282,0,0,0,17.217,9.123l4.357.536a37.351,37.351,0,0,1,31.159,26.217,36.526,36.526,0,0,1-10.75,37.872L349.5,278.658A25.621,25.621,0,0,0,341,298v10.119a20.2,20.2,0,0,0,9.159,17.211,34.892,34.892,0,0,1,15.832,26.075l.955,9.859A17.421,17.421,0,0,0,384.539,377h25.266a38.272,38.272,0,0,0,35.24-22.775l1.518-3.338a35.142,35.142,0,0,1,30.819-21.082l5.944-.239.184-.012A237.927,237.927,0,0,1,425,425Zm62.116-107.79-2.95.3c-.466.047-.934.08-1.39.1l-5.937.269a47.125,47.125,0,0,0-41.263,28.305l-1.518,3.219A26.271,26.271,0,0,1,409.805,365H384.539a5.515,5.515,0,0,1-5.707-4.927l-1.01-9.98a46.6,46.6,0,0,0-21.157-34.905A8.146,8.146,0,0,1,353,308.121V298a13.615,13.615,0,0,1,4.449-10.351L400.5,249.527a48.527,48.527,0,0,0,14.234-50.346,49.393,49.393,0,0,0-41.2-34.646l-4.37-.536a15.31,15.31,0,0,1-9.66-5.115,6.042,6.042,0,0,1-.8-6.836l9.038-15.455a304.465,304.465,0,0,1,38.538-52.174,5.927,5.927,0,0,0,.459-.565l5.964-8.322Q419.011,81.031,425,87a237.439,237.439,0,0,1,70,169A240.326,240.326,0,0,1,487.115,317.209Z"/></svg>
