<svg height="384pt" viewBox="0 0 384 384" width="384pt" xmlns="http://www.w3.org/2000/svg"><path d="m208 32.808594v-32.808594h-32v32.808594c-75.472656 7.535156-135.65625 67.71875-143.191406 143.191406h-32.808594v32h32.808594c7.535156 75.472656 67.71875 135.65625 143.191406 143.191406v32.808594h32v-32.808594c75.472656-7.535156 135.65625-67.71875 143.191406-143.191406h32.808594v-32h-32.808594c-7.535156-75.472656-67.71875-135.65625-143.191406-143.191406zm110.886719 143.191406h-32.335938c-6.773437-40.113281-38.4375-71.785156-78.550781-78.550781v-32.335938c57.785156 7.253907 103.632812 53.101563 110.886719 110.886719zm-64.992188 32c-5.804687 22.433594-23.460937 40.089844-45.894531 45.894531v-29.894531h-32v29.894531c-22.433594-5.804687-40.089844-23.460937-45.894531-45.894531h29.894531v-32h-29.894531c5.804687-22.433594 23.460937-40.089844 45.894531-45.894531v29.894531h32v-29.894531c22.433594 5.804687 40.089844 23.460937 45.894531 45.894531h-29.894531v32zm-77.894531-142.886719v32.335938c-40.113281 6.773437-71.785156 38.4375-78.550781 78.550781h-32.335938c7.253907-57.785156 53.101563-103.632812 110.886719-110.886719zm-110.886719 142.886719h32.335938c6.773437 40.113281 38.4375 71.785156 78.550781 78.550781v32.335938c-57.785156-7.253907-103.632812-53.101563-110.886719-110.886719zm142.886719 110.886719v-32.335938c40.113281-6.773437 71.785156-38.4375 78.550781-78.550781h32.335938c-7.253907 57.785156-53.101563 103.632812-110.886719 110.886719zm0 0"/></svg>