<?xml version="1.0" encoding="UTF-8"?>
<svg version="1.1" viewBox="0 0 2048 2048" xmlns="http://www.w3.org/2000/svg">
 <g transform="translate(-187.3 1562.9)">
  <g transform="matrix(1.0008 0 0 1.0008 -.14946 -.38431)">
   <path transform="translate(186.47 -1562.1)" d="m1389.9 0.8125c-50.416-0.0055125-100.83 18.893-138.62 56.688l-428.31 428.31c-75.588 75.588-75.588 201.69 0 277.28l28 27.969 140.5-140.5-26.156-26.125 424.59-424.59 458.28 458.28-424.59 424.59-26.125-26.156-140.5 140.5 28 28c75.588 75.588 201.66 75.557 277.25-0.031l428.31-428.28c75.588-75.588 75.588-201.66 0-277.25l-462-461.97c-37.794-37.794-88.209-56.713-138.62-56.719z" color="#000000" style="block-progression:tb;text-indent:0;text-transform:none"/>
   <path transform="translate(186.47 -1562.1)" d="m624.44 766.25c-50.421 1e-5 -100.83 18.893-138.62 56.688l-428.31 428.31c-75.588 75.588-75.557 201.66 0.03125 277.25l461.97 462c75.588 75.588 201.66 75.588 277.25 0l428.28-428.31c75.588-75.588 75.62-201.66 0.031-277.25l-28-28-140.47 140.47 26.156 26.125-424.62 424.62-458.28-458.28 424.59-424.62 26.156 26.156 140.47-140.47-27.969-28c-37.794-37.794-88.235-56.688-138.66-56.688z" color="#000000" style="block-progression:tb;text-indent:0;text-transform:none"/>
   <path transform="translate(186.47 -1562.1)" d="m1206.5 573.34c-11.279 0-22.566 4.5039-31.563 13.5l-588.06 588.06c-17.992 17.992-17.992 45.133 0 63.125l223.16 223.16c17.992 17.992 45.101 17.961 63.094-0.031l588.06-588.06c17.992-17.992 18.024-45.101 0.031-63.094l-223.16-223.16c-8.9961-8.9962-20.283-13.5-31.562-13.5z" color="#000000" fill-rule="evenodd"/>
  </g>
 </g>
</svg>
