<svg viewBox="0 -72 512.001 512" xmlns="http://www.w3.org/2000/svg"><path fill="#e546ff" d="m510.796875 219.855469c-.929687-1.433594-23.183594-35.46875-65.707031-69.890625-24.996094-20.234375-51.828125-36.363282-79.753906-47.941406-34.988282-14.511719-71.777344-21.867188-109.335938-21.867188s-74.34375 7.355469-109.335938 21.867188c-27.925781 11.578124-54.757812 27.707031-79.753906 47.941406-42.523437 34.421875-64.777344 68.457031-65.703125 69.890625-1.609375 2.484375-1.609375 5.679687 0 8.164062.925781 1.433594 23.179688 35.46875 65.703125 69.890625 24.996094 20.234375 51.828125 36.363282 79.753906 47.945313 34.992188 14.507812 71.777344 21.863281 109.335938 21.863281 25.152344 0 50.121094-3.316406 74.226562-9.855469 4.003907-1.089843 6.371094-5.21875 5.28125-9.222656-1.085937-4.007813-5.21875-6.371094-9.21875-5.285156-22.820312 6.195312-46.46875 9.332031-70.289062 9.332031-80.40625 0-141.847656-35.964844-179.230469-66.136719-32.445312-26.183593-52.953125-52.6875-60.101562-62.613281 7.152343-9.929688 27.65625-36.429688 60.101562-62.613281 37.382813-30.171875 98.824219-66.136719 179.230469-66.136719s141.847656 35.964844 179.234375 66.136719c32.445313 26.183593 52.953125 52.6875 60.101563 62.613281-11.632813 16.140625-58.660157 76.109375-135.878907 108.082031-3.832031 1.589844-5.65625 5.984375-4.066406 9.820313 1.585937 3.832031 5.980469 5.65625 9.816406 4.066406 48.929688-20.257812 85.851563-51.15625 108.207031-73.503906 24.257813-24.253906 36.855469-43.570313 37.382813-44.382813 1.605469-2.484375 1.605469-5.679687 0-8.164062zm0 0"/><path fill="#e546ff" d="m256 112.21875c-61.601562 0-111.71875 50.117188-111.71875 111.71875s50.117188 111.71875 111.71875 111.71875 111.71875-50.117188 111.71875-111.71875-50.117188-111.71875-111.71875-111.71875zm0 208.40625c-53.3125 0-96.6875-43.371094-96.6875-96.6875 0-53.3125 43.375-96.6875 96.6875-96.6875 53.316406 0 96.691406 43.375 96.691406 96.6875 0 53.316406-43.375 96.6875-96.691406 96.6875zm0 0"/><path fill="#e546ff" d="m256 192.375c-17.402344 0-31.5625 14.160156-31.5625 31.5625s14.160156 31.5625 31.5625 31.5625 31.5625-14.160156 31.5625-31.5625-14.160156-31.5625-31.5625-31.5625zm0 48.09375c-9.113281 0-16.53125-7.414062-16.53125-16.53125s7.417969-16.53125 16.53125-16.53125c9.117188 0 16.535156 7.414062 16.535156 16.53125s-7.417968 16.53125-16.535156 16.53125zm0 0"/><path fill="#e546ff" d="m256 39.078125c4.152344 0 7.515625-3.363281 7.515625-7.515625v-24.046875c0-4.152344-3.363281-7.515625-7.515625-7.515625-4.148438 0-7.515625 3.363281-7.515625 7.515625v24.046875c0 4.152344 3.367187 7.515625 7.515625 7.515625zm0 0"/><path fill="#e546ff" d="m153.304688 61.09375c2.210937 3.824219 7.402343 4.914062 10.96875 2.289062 3.042968-2.238281 3.933593-6.535156 2.046874-9.804687l-12.023437-20.824219c-2.074219-3.59375-6.667969-4.824218-10.261719-2.75-3.597656 2.074219-4.828125 6.671875-2.753906 10.265625zm0 0"/><path fill="#e546ff" d="m348.429688 63.84375c3.550781 2.046875 8.222656.792969 10.265624-2.75l12.023438-20.824219c2.078125-3.59375.84375-8.191406-2.75-10.265625-3.59375-2.074218-8.191406-.84375-10.265625 2.75l-12.023437 20.824219c-2.074219 3.59375-.84375 8.191406 2.75 10.265625zm0 0"/></svg>
