<svg height="512pt" viewBox="0 0 512 512" width="512pt" xmlns="http://www.w3.org/2000/svg"><path d="m305.9375 189.511719-23.058594-19.21875 92.390625-111.859375 23.054688 19.21875zm0 0" fill="#32393f"/><path d="m206.0625 189.511719-69.285156-84.128907 23.054687-19.222656 69.289063 84.132813zm0 0" fill="#575f64"/><path d="m403.96875 278.191406-93.375-23.085937 7.265625-29.089844 93.375 23.085937zm0 0" fill="#32393f"/><path d="m294.628906 416.8125-36.5625-128.996094 28.855469-8.230468 36.5625 128.996093zm0 0" fill="#32393f"/><path d="m107.257812 349.953125-17.433593-24.402344 108.636719-76.875 17.433593 24.402344zm0 0" fill="#575f64"/><path d="m406 90c-24.8125 0-45-20.1875-45-45s20.1875-45 45-45 45 20.1875 45 45-20.1875 45-45 45zm0 0" fill="#f03800"/><path d="m331 512c-33.089844 0-60-26.910156-60-60s26.910156-60 60-60 60 26.910156 60 60-26.910156 60-60 60zm0 0" fill="#f03800"/><path d="m60 421c-33.089844 0-60-26.910156-60-60s26.910156-60 60-60 60 26.910156 60 60-26.910156 60-60 60zm0 0" fill="#ff641a"/><path d="m121 120c-33.089844 0-60-26.910156-60-60s26.910156-60 60-60 60 26.910156 60 60-26.910156 60-60 60zm0 0" fill="#ff641a"/><path d="m452 331c-33.089844 0-60-26.910156-60-60s26.910156-60 60-60 60 26.910156 60 60-26.910156 60-60 60zm0 0" fill="#f03800"/><path d="m256 151c-41.398438 0-75 33.601562-75 75s33.601562 75 75 75 75-33.601562 75-75-33.601562-75-75-75zm0 0" fill="#ff641a"/><path d="m331 226c0 41.398438-33.601562 75-75 75v-150c41.398438 0 75 33.601562 75 75zm0 0" fill="#f03800"/></svg>