<?xml version="1.0" standalone="no"?>
<!DOCTYPE svg PUBLIC "-//W3C//DTD SVG 20010904//EN"
 "http://www.w3.org/TR/2001/REC-SVG-20010904/DTD/svg10.dtd">
<svg version="1.0" xmlns="http://www.w3.org/2000/svg"
 width="363.000000pt" height="409.000000pt" viewBox="0 0 363.000000 409.000000"
 preserveAspectRatio="xMidYMid meet">
<metadata>
Created by potrace 1.16, written by Peter Selinger 2001-2019
</metadata>
<g transform="translate(0.000000,409.000000) scale(0.100000,-0.100000)"
fill="#000000" stroke="none">
<path d="M0 3475 l0 -615 84 0 c95 0 90 -5 101 90 17 133 66 302 123 415 127
255 312 400 602 473 95 24 295 52 371 52 l49 0 0 -1632 c0 -1397 -2 -1647 -15
-1732 -17 -110 -46 -183 -95 -239 -64 -73 -223 -126 -385 -127 -38 0 -75 -4
-81 -8 -12 -7 -18 -57 -15 -119 l1 -33 1085 0 1086 0 -3 78 -3 77 -40 2 c-213
9 -307 26 -390 71 -57 31 -95 82 -127 167 l-23 60 -3 1718 -2 1717 69 0 c81 0
272 -24 363 -45 227 -52 364 -141 475 -305 113 -168 182 -354 227 -610 l11
-65 83 -3 82 -3 0 616 0 615 -1815 0 -1815 0 0 -615z"/>
</g>
</svg>
