<svg height="496pt" viewBox="0 0 496 496" width="496pt" xmlns="http://www.w3.org/2000/svg"><path fill="#FFFFFF" stroke="#FFFFFF" d="m248 80c13.230469 0 24-10.769531 24-24s-10.769531-24-24-24-24 10.769531-24 24 10.769531 24 24 24zm0-32c4.40625 0 8 3.585938 8 8s-3.59375 8-8 8-8-3.585938-8-8 3.59375-8 8-8zm0 0"/><path fill="#FFFFFF" stroke="#FFFFFF" d="m288 192h-16v-96h-64v48h16v48h-16v48h80zm-16 32h-48v-16h16v-80h-16v-16h32v96h16zm0 0"/><path fill="#FFFFFF" stroke="#FFFFFF" d="m464 112v-16h-86.023438c-17.121093-55.527344-68.90625-96-129.976562-96s-112.855469 40.472656-129.976562 96h-86.023438v16h-32v352h208.808594c3.710937 18.230469 19.878906 32 39.191406 32s35.480469-13.769531 39.191406-32h208.808594v-352zm-216-96c66.167969 0 120 53.832031 120 120 0 56.992188-40.503906 106.464844-96.3125 117.640625l-3.832031.765625-19.855469 39.707031-19.847656-39.707031-3.832032-.765625c-55.816406-11.175781-96.320312-60.648437-96.320312-117.640625 0-66.167969 53.832031-120 120-120zm40 249.921875c8.359375-2.570313 16.367188-5.882813 23.910156-9.921875h104.089844v96h-128zm-240-153.921875h66.246094c-1.390625 7.808594-2.246094 15.800781-2.246094 24 0 63.265625 44.046875 118.359375 105.304688 132.496094l30.695312 61.390625 24-48.007813v86.121094h160v-128h-96.632812c29.90625-25.214844 48.632812-62.832031 48.632812-104 0-8.199219-.855469-16.191406-2.246094-24h66.246094v304h-192v-72h-16v72h-192zm432 336h-208v8c0 13.230469-10.769531 24-24 24s-24-10.769531-24-24v-8h-208v-320h16v304h432v-304h16zm0 0"/><path fill="#FFFFFF" stroke="#FFFFFF" d="m64 384h160v16h-160zm0 0"/><path fill="#FFFFFF" stroke="#FFFFFF" d="m64 352h160v16h-160zm0 0"/><path fill="#FFFFFF" stroke="#FFFFFF" d="m64 320h160v16h-160zm0 0"/><path fill="#FFFFFF" stroke="#FFFFFF" d="m64 288h144v16h-144zm0 0"/><path fill="#FFFFFF" stroke="#FFFFFF" d="m272 384h160v16h-160zm0 0"/></svg>
