<?xml version="1.0" standalone="no"?>
<!DOCTYPE svg PUBLIC "-//W3C//DTD SVG 20010904//EN"
 "http://www.w3.org/TR/2001/REC-SVG-20010904/DTD/svg10.dtd">
<svg version="1.0" xmlns="http://www.w3.org/2000/svg"
 width="200.000000pt" height="200.000000pt" viewBox="0 0 200.000000 200.000000"
 preserveAspectRatio="xMidYMid meet">
<metadata>
Created by potrace 1.15, written by Peter Selinger 2001-2017
</metadata>
<g transform="translate(0.000000,200.000000) scale(0.100000,-0.100000)"
fill="#000000" stroke="none">
<path fill="purple" d="M506 1453 c-3 -42 -6 -109 -6 -150 0 -70 1 -73 23 -73 20 0 26 9 40
58 36 126 74 152 235 160 l102 5 0 -462 c0 -513 -1 -519 -60 -540 -18 -6 -48
-11 -66 -11 -27 0 -34 -4 -34 -20 0 -19 7 -20 255 -20 242 0 255 1 255 19 0
15 -10 20 -57 25 -71 8 -78 12 -98 59 -13 31 -15 104 -15 492 l0 455 88 -1
c126 -1 169 -15 209 -67 18 -24 40 -68 49 -98 13 -47 19 -54 41 -54 26 0 26 0
20 68 -4 37 -7 104 -7 150 l0 82 -484 0 -483 0 -7 -77z"/>
</g>
</svg>
