<?xml version="1.0" encoding="iso-8859-1"?>
<!-- Generator: Adobe Illustrator 16.0.0, SVG Export Plug-In . SVG Version: 6.00 Build 0)  -->
<!DOCTYPE svg PUBLIC "-//W3C//DTD SVG 1.1//EN" "http://www.w3.org/Graphics/SVG/1.1/DTD/svg11.dtd">
<svg version="1.1" id="Capa_1" xmlns="http://www.w3.org/2000/svg" xmlns:xlink="http://www.w3.org/1999/xlink" x="0px" y="0px"
	 width="363.025px" height="363.024px" viewBox="0 0 363.025 363.024" style="enable-background:new 0 0 363.025 363.024;"
	 xml:space="preserve">
<g>
	<g>
		<path style="fill:#030303;" d="M181.512,0C81.422,0,0,81.424,0,181.513c0,100.088,81.422,181.512,181.512,181.512
			c100.089,0,181.513-81.424,181.513-181.512C363.025,81.424,281.601,0,181.512,0z M181.512,351.314
			c-93.626,0-169.802-76.175-169.802-169.802S87.886,11.71,181.512,11.71c93.627,0,169.803,76.176,169.803,169.803
			S275.139,351.314,181.512,351.314z"/>
		<polygon style="fill:#030303;" points="187.368,111.25 175.658,111.25 175.658,175.657 111.25,175.657 111.25,187.368 
			175.658,187.368 175.658,251.775 187.368,251.775 187.368,187.368 251.776,187.368 251.776,175.657 187.368,175.657 		"/>
	</g>
</g>
<g>
</g>
<g>
</g>
<g>
</g>
<g>
</g>
<g>
</g>
<g>
</g>
<g>
</g>
<g>
</g>
<g>
</g>
<g>
</g>
<g>
</g>
<g>
</g>
<g>
</g>
<g>
</g>
<g>
</g>
</svg>
